<svg width="100%" height="100%" viewBox="0 0 24 24" fill="currentColor" xmlns="http://www.w3.org/2000/svg">
  <path d="M16.0725 0.383705L5.38264 11.0738C5.13562 11.3208 5.00001 11.6502 5.00001 12.009C5.00001 12.3606 5.13562 12.6902 5.38264 12.9368L16.0624 23.617C16.3096 23.864 16.6392 24 16.9908 24C17.3424 24 17.6722 23.8642 17.9192 23.617L18.7057 22.8304C18.9527 22.5834 19.0891 22.2537 19.0891 21.9021C19.0891 21.5504 18.9527 21.2209 18.7057 20.9737L9.73735 12.0053L18.716 3.02701C18.9629 2.77999 19.0991 2.45043 19.0991 2.09862C19.0991 1.74701 18.9629 1.41765 18.716 1.17043L17.9291 0.383705C17.4173 -0.127903 16.5844 -0.127903 16.0725 0.383705Z" fill="currentColor"/>
</svg>
