<svg width="100%" height="100%" viewBox="0 0 24 24" fill="currentColor" xmlns="http://www.w3.org/2000/svg">
  <path d="M8.02652 23.6163L18.7164 12.9262C18.9635 12.6792 19.0991 12.3498 19.0991 11.991C19.0991 11.6394 18.9635 11.3098 18.7164 11.0632L8.03667 0.383023C7.78945 0.135999 7.45989 0 7.10828 0C6.75667 0 6.42692 0.135804 6.17989 0.383023L5.39336 1.16956C5.14634 1.41658 5.00995 1.74633 5.00995 2.09794C5.00995 2.44955 5.14634 2.77911 5.39336 3.02633L14.3617 11.9947L5.38302 20.973C5.13619 21.22 5 21.5496 5 21.9014C5 22.253 5.13619 22.5823 5.38302 22.8296L6.16994 23.6163C6.68175 24.1279 7.51472 24.1279 8.02652 23.6163Z" fill="currentColor"/>
</svg>
